Simulation
nRows=47
nColumns=15
endheader
time  TH_x TH_y TH_z SC_y  SC_z  SC_x  AC_y  AC_z  AC_x  GH_y  GH_z  GH_yy  EL_x  PS_y
0.0  0.000000  0.000000  0.000000  -27.549367437425936  3.5970814489931238  5.325895916796365  53.53352500905417  9.818132809804993  3.3235978018183485  6.529421292127722  5.760403783510004  42.02894000169765  16.059898197005108  120.000000
0.027999999999999973  0.000000  0.000000  0.000000  -26.838919901088005  3.9409549119770793  4.876901643408896  52.971899570327935  9.891750203365428  3.501824448651719  8.371771166545907  6.567955437809909  39.97766989388376  15.538398088820506  120.000000
0.055999999999999946  0.000000  0.000000  0.000000  -25.944893862837624  4.322284025932436  4.339425499982469  52.39505979848535  9.85494296969331  3.685795104991048  9.740577709754852  7.346345685359428  38.27076308005182  15.035176524476132  120.000000
0.08399999999999992  0.000000  0.000000  0.000000  -25.16162324043366  4.641302549458961  3.814053340704757  51.843724785872915  9.760814659771269  3.8624872696666257  10.83964426538787  8.122935400567838  36.728250577740084  14.552047608627976  120.000000
0.11199999999999989  0.000000  0.000000  0.000000  -24.543596872894074  4.898130992736815  3.3276131972646343  51.36349112829626  9.657086070733888  4.007756553033558  11.749061074374467  8.927461686317356  35.29400441177612  14.091488838639952  120.000000
0.13999999999999987  0.000000  0.000000  0.000000  -24.111983892239955  5.0877268129204305  2.914301522255911  50.96523123867771  9.56737191757071  4.122119070341634  12.422397216787774  9.775771337241226  34.037514700367474  13.655863724599211  120.000000
0.16799999999999984  0.000000  0.000000  0.000000  -23.847219403841116  5.216805883517016  2.5842873579620904  50.65196677249959  9.50681341344984  4.210478488743647  12.857345997624932  10.685515701745006  32.97640361886347  13.249547432203439  120.000000
0.1959999999999998  0.000000  0.000000  0.000000  -23.69669780894728  5.309373760392354  2.3389131271820114  50.41765825955245  9.477186907913163  4.27560238318868  13.047741604611783  11.668410085253871  32.125251369578585  12.87705519797697  120.000000
0.22399999999999978  0.000000  0.000000  0.000000  -23.63129548147436  5.377677812160507  2.178938040156079  50.249789586630556  9.478535550674279  4.321740713569446  13.005974165748162  12.736504608627829  31.473942387804126  12.543248674891213  120.000000
0.2519999999999998  0.000000  0.000000  0.000000  -23.610481756786957  5.446853766883663  2.1007504622900215  50.13159601636982  9.504857475536474  4.351443701562546  12.753322837328716  13.89656969985982  30.99764467837349  12.251051155266936  120.000000
0.27999999999999975  0.000000  0.000000  0.000000  -23.6163426837694  5.527590754382976  2.1055900842458386  50.04579931441854  9.552591543137288  4.368129269434758  12.325217973751089  15.152737140059541  30.655019900925804  12.00308880168934  120.000000
0.3079999999999997  0.000000  0.000000  0.000000  -23.635801637078675  5.633459326348072  2.193549438348525  49.98025093698109  9.616156234788399  4.3728268999922335  11.780694080859991  16.503259957446407  30.377161869242897  11.79971520681853  120.000000
0.3359999999999997  0.000000  0.000000  0.000000  -23.663546486009402  5.7685576177141185  2.3651834307177158  49.92762595770312  9.69200233648138  4.364715856093765  11.182309165529304  17.939673161372188  30.09079166972556  11.64048249507349  120.000000
0.36399999999999966  0.000000  0.000000  0.000000  -23.708080806521913  5.929442698358037  2.621379084656569  49.88358399933767  9.777447885218894  4.343253302065003  10.590279678730381  19.448652757962254  29.723588936987003  11.521951080196963  120.000000
0.3919999999999996  0.000000  0.000000  0.000000  -23.77318969981553  6.113345588890673  2.96221178614482  49.84687442384239  9.872488101850394  4.305777550429012  10.051183028254291  21.011345483972505  29.2181152900777  11.439406606071053  120.000000
0.4199999999999996  0.000000  0.000000  0.000000  -23.873687621301816  6.312158400129591  3.387435222781971  49.81965062422133  9.980702715739683  4.2505999599617175  9.598255193397808  22.61011114999689  28.53348468934766  11.385911367909115  120.000000
0.44799999999999957  0.000000  0.000000  0.000000  -24.01417919374322  6.5208174657883635  3.8965343421443577  49.804045388598304  10.105651590095643  4.1747586787551  9.244175033839436  24.226040536989046  27.65439631773077  11.35301030037254  120.000000
0.47599999999999953  0.000000  0.000000  0.000000  -24.201549978223802  6.72992413097292  4.486699051713523  49.80233750795802  10.252325471591062  4.08002708883381  8.988236197127424  25.845709385964874  26.586376956437864  11.331002447937042  120.000000
0.5039999999999996  0.000000  0.000000  0.000000  -24.433871630515164  6.933865509246888  5.156018077973029  49.81700234420926  10.422621747889753  3.9685401255619626  8.821002477485528  27.45706137671321  25.351973964825746  11.310372396353532  120.000000
0.5319999999999995  0.000000  0.000000  0.000000  -24.706054379128407  7.128027018285975  5.897072623251562  49.850236545879525  10.617411283508929  3.843682086357717  8.725817407974006  29.053880915991744  23.986548021055253  11.281628331756377  120.000000
0.5599999999999995  0.000000  0.000000  0.000000  -25.011531194561954  7.307851799544392  6.704201812551379  49.902505657775926  10.83261683956337  3.7095169029460107  8.683098164419686  30.62922766733662  22.533446385147016  11.23740491402443  120.000000
0.5879999999999994  0.000000  0.000000  0.000000  -25.340161509742824  7.470239272817617  7.562957503077525  49.97303903305734  11.063323712425998  3.5703270728658967  8.672985861174151  32.17959585523544  21.035697222199726  11.172536151914066  120.000000
0.6159999999999994  0.000000  0.000000  0.000000  -25.68326130395176  7.6116272881142475  8.46327964369152  50.060725478050834  11.300260122146483  3.429681241347637  8.678531721882525  33.69806037034797  19.533563290180137  11.086821631629183  120.000000
0.6439999999999994  0.000000  0.000000  0.000000  -26.030278358749268  7.730549344069705  9.387797723678178  50.16215619998488  11.535869341001602  3.292858944779296  8.685724098550041  35.18167113841965  18.058930826859513  10.983781826291773  120.000000
0.6719999999999994  0.000000  0.000000  0.000000  -26.373337502920773  7.8265459799512955  10.32880432320364  50.27383967123361  11.76076636626909  3.1631760084902742  8.682117733350866  36.62724580225253  16.638518574189586  10.870799021811813  120.000000
0.6999999999999993  0.000000  0.000000  0.000000  -26.706274983905644  7.906751012775863  11.277718598522819  50.39160299623242  11.970366705167026  3.043907854783895  8.656761878670764  38.03666033670205  15.290983505285977  10.755770669961722  120.000000
0.7279999999999993  0.000000  0.000000  0.000000  -27.024854062235395  7.976378517119072  12.231735064634  50.51075212875368  12.163078794844228  2.937961842116207  8.598470569057554  39.41322148439854  14.031629375635815  10.646456268552251  120.000000
0.7559999999999992  0.000000  0.000000  0.000000  -27.328077944878373  8.0436244643956  13.186344247566396  50.62737632976421  12.337553557126347  2.8488820273616904  8.500353127997855  40.758227161510035  12.868889337676912  10.54946448180378  120.000000
0.7839999999999993  0.000000  0.000000  0.000000  -27.613203863589927  8.110444893141912  14.138199921100423  50.73800732553685  12.490554838950878  2.780507968090837  8.358689112424862  42.06900199256147  11.808398568606655  10.470667425867129  120.000000
0.8119999999999992  0.000000  0.000000  0.000000  -27.879872043500704  8.178613258412277  15.082542200749733  50.84103423720978  12.619379041975122  2.736550943366349  8.174520848346722  43.341087320605425  10.85127142361923  10.41393006438074  120.000000
0.8399999999999992  0.000000  0.000000  0.000000  -28.1265126587304  8.249712846241932  16.01532746468859  50.93589563789797  12.723133393846265  2.719438249582677  7.950086821624297  44.569589058022515  9.998528047586541  10.38140388988299  120.000000
0.8679999999999991  0.000000  0.000000  0.000000  -28.356841003143177  8.326156650407174  16.93445529163852  51.022323464334335  12.802455479082244  2.7320827859987293  7.6889485267544835  45.75167164981399  9.249902669998805  10.372956235562157  120.000000
0.8959999999999991  0.000000  0.000000  0.000000  -28.57264346244591  8.409975694684688  17.84034008845909  51.10005767149599  12.857447931099154  2.7755654027942094  7.39360334703767  46.886633269532325  8.606096252555732  10.386785483586653  120.000000
0.9239999999999992  0.000000  0.000000  0.000000  -28.781439527846878  8.503735209267303  18.736470861609867  51.169735612463285  12.888357062785646  2.852155362822425  7.067971224126189  47.9743707430967  8.06626939919148  10.420175702959497  120.000000
0.9519999999999991  0.000000  0.000000  0.000000  -28.98678953665233  8.609133345949614  19.62575702547173  51.23186564621031  12.89456014435845  2.96279101370185  6.714665782446808  49.0160280969163  7.629757162738128  10.47008988169233  120.000000
0.9799999999999991  0.000000  0.000000  0.000000  -29.19653465826479  8.727621358236751  20.512919006790412  51.2885532724296  12.87509215953132  3.108848317972596  6.337001605880495  50.010489647338325  7.293843075189858  10.53432969190976  120.000000
1.0079999999999991  0.000000  0.000000  0.000000  -29.414208618366533  8.859113370306021  21.399765561311014  51.34150936443854  12.829107426636575  3.291214332464641  5.936543591260105  50.95602582374687  7.054001140226989  10.61234443776642  120.000000
1.035999999999999  0.000000  0.000000  0.000000  -29.64699994861531  9.002781021810957  22.291881078333542  51.39343169205056  12.756837422997  3.5104644853833  5.514685655993059  51.84855251953189  6.902182035269058  10.706468096108688  120.000000
1.063999999999999  0.000000  0.000000  0.000000  -29.89689004485995  9.157328735837796  23.19115230794442  51.44640129105563  12.661904117811691  3.767172512537636  5.0716313908048365  52.68300246005976  6.826112532717854  10.822416425599016  120.000000
1.091999999999999  0.000000  0.000000  0.000000  -30.165783807924562  9.318228572350097  24.10215317428162  51.502515464336476  12.547810255480483  4.06164191501847  4.60802070360712  53.45162757323884  6.810508864897015  10.96937614236941  120.000000
1.119999999999999  0.000000  0.000000  0.000000  -30.449997816752497  9.48040974599245  25.025403611958165  51.56365827424191  12.415310846464038  4.391852732082429  4.12574531358114  54.144568058154164  6.837308901563115  11.15824916107256  120.000000
1.1479999999999988  0.000000  0.000000  0.000000  -30.744034941407946  9.63627541478875  25.96301527174245  51.6298205173466  12.263704976814623  4.753577819424143  3.628128818076678  54.75332995449921  6.889417213442243  11.397800334082477  120.000000
1.1759999999999988  0.000000  0.000000  0.000000  -31.04068801385335  9.780814072334335  26.911330259367283  51.6987536423061  12.092187335002883  5.142371571648715  3.1228700637280027  55.27449639354719  6.950805546370574  11.69124485305595  120.000000
1.2039999999999988  0.000000  0.000000  0.000000  -31.334592658266036  9.91160004363993  27.863753881541093  51.76689393761927  11.901079591022206  5.550625057772779  2.620631977648139  55.712218538364674  7.01034302464058  12.031708398112201  120.000000
1.2319999999999989  0.000000  0.000000  0.000000  -31.620189071460654  10.027273976233609  28.805921621938666  51.83162178768996  11.689560214743741  5.966643758984546  2.1357070605085524  56.0756896662791  7.062241047049287  12.401019777619984  120.000000
1.2599999999999987  0.000000  0.000000  0.000000  -31.895716952509883  10.131047636713747  29.717306790551255  51.89338405434066  11.456188654738028  6.373059090813141  1.6845026962022618  56.378576363075155  7.105564361699394  12.77175593338007  120.000000
1.2879999999999987  0.000000  0.000000  0.000000  -32.158105560538736  10.225314242180577  30.579890249085793  51.9544851153819  11.199698295843021  6.74873715041136  1.283115857131473  56.636195409301244  7.1438222525495645  13.112438988060578  120.000000
